<svg width="24" height="12" viewBox="0 0 24 12" fill="none" xmlns="http://www.w3.org/2000/svg">
<path d="M23.5031 4.50183H22.5032V7.50183H23.5031C23.7788 7.50183 24 7.23143 24 6.90256V5.1011C24 4.76858 23.7788 4.50183 23.5031 4.50183Z" fill="#F41E1E"/>
<path d="M0 5.1011V6.90256C0 7.19854 0.175735 7.44336 0.409039 7.49452C0.439338 7.50183 0.466608 7.50548 0.496907 7.50548H1.49678V4.50548H0.496907C0.224214 4.50183 0 4.76857 0 5.1011Z" fill="#F41E1E"/>
<path d="M16.3646 4.50183H7.6354V7.50183H16.3646V4.50183Z" fill="#F41E1E"/>
<path d="M3.85406 1.42509H2.46939C2.19366 1.42509 1.97248 1.69184 1.97248 2.02436V9.97564C1.97248 10.1949 2.06944 10.3885 2.21487 10.4909C2.28759 10.5457 2.37546 10.5749 2.46939 10.5749H3.85406C3.99041 10.5749 4.1116 10.5091 4.2025 10.4032V1.60048C4.17523 1.5676 4.14493 1.53471 4.10857 1.51279C4.03283 1.45798 3.94496 1.42509 3.85406 1.42509Z" fill="#F41E1E"/>
<path d="M7.10213 0.310597C7.01426 0.124239 6.85368 0 6.66582 0H5.17207C4.89635 0 4.67516 0.270402 4.67516 0.599269V11.4007C4.67516 11.7333 4.89635 12 5.17207 12H6.66582C6.94154 12 7.16273 11.7296 7.16273 11.4007V0.599269C7.16273 0.496955 7.14152 0.398295 7.10213 0.310597Z" fill="#F41E1E"/>
<path d="M21.8215 1.53471C21.7397 1.46528 21.6397 1.42509 21.5336 1.42509H20.149C20.0126 1.42509 19.8914 1.49086 19.8005 1.59683V10.4068C19.8914 10.5128 20.0126 10.5786 20.149 10.5786H21.5336C21.7488 10.5786 21.9306 10.4141 22.0002 10.1839C22.0184 10.1181 22.0305 10.0524 22.0305 9.97929V2.02436C22.0305 1.86358 21.979 1.71742 21.8912 1.60779C21.87 1.58221 21.8457 1.55664 21.8215 1.53471Z" fill="#F41E1E"/>
<path d="M19.2582 0.295981C19.1703 0.116931 19.0097 0 18.8279 0H17.3342C17.0584 0 16.8373 0.270402 16.8373 0.599269V11.4007C16.8373 11.7333 17.0584 12 17.3342 12H18.8279C19.1036 12 19.3248 11.7296 19.3248 11.4007V0.599269C19.3248 0.489647 19.3006 0.383678 19.2582 0.295981Z" fill="#F41E1E"/>
</svg>
