<svg width="36" height="36" viewBox="0 0 36 36" fill="none" xmlns="http://www.w3.org/2000/svg">
<g clip-path="url(#clip0_317_2802)">
<path d="M6.12583 8.94656C6.16689 6.33276 8.30453 4.21875 10.9279 4.21875H14.3981C17.0215 4.21875 19.1591 6.33276 19.2002 8.94656C20.9796 9.82891 22.5573 11.059 23.8427 12.5485V7.97646C23.8427 3.57827 20.2644 0 15.8662 0H9.45977C5.06151 0 1.48331 3.57827 1.48331 7.97646V12.5485C2.76876 11.059 4.34636 9.82891 6.12583 8.94656Z" fill="white"/>
<path d="M15.1483 23.8143C17.4427 23.8143 19.5818 24.9296 20.9135 26.7431H24.4735C25.0309 25.3014 25.3192 23.762 25.3192 22.1836C25.3192 15.2049 19.6417 9.52734 12.663 9.52734C5.68434 9.52734 0.00674438 15.2049 0.00674438 22.1836C0.00674438 24.8159 0.807744 27.3398 2.32298 29.4825C3.33928 30.9195 4.86836 31.7109 6.62856 31.7109H8.03995C8.01421 31.4646 8.00078 31.2148 8.00078 30.9618C8.00071 27.0206 11.2071 23.8143 15.1483 23.8143Z" fill="white"/>
<path d="M30.9551 25.9236C28.93 25.9236 27.1813 27.1252 26.3815 28.8524H19.7219C18.9221 27.1252 17.1734 25.9236 15.1483 25.9236C12.3702 25.9236 10.1101 28.1837 10.1101 30.9618C10.1101 33.7398 12.3702 35.9999 15.1483 35.9999C17.1734 35.9999 18.9221 34.7983 19.7219 33.0711H26.3815C27.1813 34.7983 28.93 35.9999 30.9551 35.9999C33.7331 35.9999 35.9933 33.7398 35.9933 30.9618C35.9933 28.1837 33.7331 25.9236 30.9551 25.9236Z" fill="white"/>
</g>
<defs>
<clipPath id="clip0_317_2802">
<rect width="36" height="36" fill="white"/>
</clipPath>
</defs>
</svg>
