<svg width="28" height="26" viewBox="0 0 28 26" fill="none" xmlns="http://www.w3.org/2000/svg">
<path d="M27.9361 10.9783L24.1821 2.00579C23.8846 1.29491 23.1882 0.831977 22.4163 0.831977H21.5785C20.6057 0.831977 19.8171 1.61898 19.8171 2.5898C19.8171 3.56061 20.6057 4.34762 21.5785 4.34762H21.6678L23.6016 9.62108C21.8853 8.44147 20.1513 8.46471 18.4007 9.62108H14.2623C16.1576 9.48879 17.6853 7.91144 17.6853 5.94258V4.24727C17.6853 2.21333 16.0321 0.558594 14 0.558594H9.90217C9.44952 0.558594 9.08262 0.925875 9.08262 1.37891C9.08262 1.83194 9.44957 2.19922 9.90217 2.19922H10.3147V5.89538C10.3147 7.85199 11.8301 9.48124 13.7328 9.62108H9.59931C7.84865 8.46471 6.11467 8.44147 4.39836 9.62108L6.33217 4.34762H6.42147C7.39431 4.34762 8.1829 3.56061 8.1829 2.5898C8.1829 1.61898 7.39425 0.831977 6.42147 0.831977H5.58377C4.8118 0.831977 4.11546 1.29491 3.81802 2.00579L0.06394 10.9783C-0.0462553 11.2416 -0.0127866 11.5442 0.154831 11.7752C1.69576 13.8985 4.05148 14.905 7.14936 14.8945L9.30285 21.9287V24.8945C9.30285 25.1965 9.54746 25.4414 9.84923 25.4414H18.1508C18.4526 25.4414 18.6972 25.1965 18.6972 24.8945V21.9287L20.8507 14.8945C23.9486 14.905 26.3043 13.8985 27.8452 11.7752C28.0128 11.5442 28.0462 11.2416 27.9361 10.9783ZM15.09 22.6523H12.9046C12.4519 22.6523 12.085 22.285 12.085 21.832C12.085 21.3789 12.452 21.0117 12.9046 21.0117H15.09C15.5427 21.0117 15.9096 21.3789 15.9096 21.832C15.9096 22.285 15.5427 22.6523 15.09 22.6523ZM15.9123 19.371H12.0904C11.6378 19.371 11.2709 19.0038 11.2709 18.5507C11.2709 18.0977 11.6378 17.7304 12.0904 17.7304H15.9123C16.365 17.7304 16.7319 18.0977 16.7319 18.5507C16.7319 19.0038 16.365 19.371 15.9123 19.371Z" fill="white"/>
</svg>
