<svg width="40" height="40" viewBox="0 0 40 40" fill="none" xmlns="http://www.w3.org/2000/svg">
<g clip-path="url(#clip0_455_497)">
<path d="M5.8132 32.5295V6.67297L0 0V38.3427L5.8132 32.5295Z" fill="#F41E1E"/>
<path d="M7.47043 34.1868L1.65723 40H38.3427L32.5295 34.1868H7.47043Z" fill="#F41E1E"/>
<path d="M34.1865 6.67297V32.5295L39.9997 38.3427V0L34.1865 6.67297Z" fill="#F41E1E"/>
<path d="M31.8433 31.843V7.37573H8.15723V31.843H12.0687C11.0031 29.226 11.2896 26.2709 12.8482 23.9046C13.1174 23.496 13.4182 23.116 13.7454 22.7655L13.1394 21.2207C12.6057 19.9008 12.7613 18.4085 13.5563 17.2271C14.3528 16.0436 15.68 15.337 17.1066 15.337H22.8929C24.3973 15.337 25.7632 16.1038 26.5464 17.3883C27.3297 18.6728 27.3861 20.2382 26.6973 21.5757L26.1402 22.6436C26.5124 23.0271 26.8518 23.4485 27.1523 23.9047C28.711 26.271 28.9975 29.2262 27.9318 31.8432H31.8433V31.843Z" fill="#F41E1E"/>
<path d="M24.2584 21.1822L24.6159 20.497C24.9293 19.8885 24.9044 19.1982 24.5448 18.6085C24.1852 18.0189 23.5829 17.6807 22.8923 17.6807H17.106C16.4511 17.6807 15.8658 17.9922 15.5002 18.5356C15.1346 19.0789 15.0663 19.7385 15.313 20.3452L15.3184 20.3586L15.66 21.2295C16.9541 20.4687 18.4456 20.0514 19.9997 20.0514C21.5214 20.0513 22.9832 20.4514 24.2584 21.1822Z" fill="#F41E1E"/>
<path d="M14.6083 31.823H25.3922C26.4667 29.7332 26.5164 27.2 25.1949 25.1938C24.8035 24.5995 24.3214 24.0868 23.7735 23.6682V25.3347C23.7735 27.4152 22.0808 29.1079 20.0003 29.1079C17.9197 29.1079 16.2271 27.4152 16.2271 25.3347V23.6682C15.6792 24.0868 15.197 24.5995 14.8056 25.1938C13.4821 27.2031 13.5636 29.7212 14.6083 31.823Z" fill="#F41E1E"/>
<path d="M19.9998 26.7641C20.788 26.7641 21.4292 26.1228 21.4292 25.3346V22.561C20.9664 22.4522 20.4874 22.395 19.9998 22.395C19.5121 22.395 19.0331 22.4522 18.5703 22.561V25.3346C18.5703 26.1228 19.2116 26.7641 19.9998 26.7641Z" fill="#F41E1E"/>
</g>
<defs>
<clipPath id="clip0_455_497">
<rect width="40" height="40" fill="white"/>
</clipPath>
</defs>
</svg>
