<svg width="40" height="40" viewBox="0 0 40 40" fill="none" xmlns="http://www.w3.org/2000/svg">
<g clip-path="url(#clip0_320_1809)">
<path d="M33.8103 37.2289L32.4668 28.4216C32.3593 27.7171 31.9451 27.0963 31.3359 26.7266L27.8338 24.6008C26.0075 24.6008 13.9092 24.6008 12.1694 24.6008L8.66736 26.7266C8.05806 27.0964 7.644 27.7171 7.5365 28.4216L6.19291 37.2289C5.99236 38.5434 6.89557 39.7715 8.21002 39.9721C9.52431 40.1725 10.7527 39.2698 10.9533 37.955L12.1273 30.2593L17.6834 26.8867H22.3198L27.8761 30.2593L29.0501 37.955C29.2507 39.2702 30.4794 40.1726 31.7933 39.9721C33.1076 39.7716 34.0107 38.5435 33.8103 37.2289Z" fill="white"/>
<path d="M19.9967 8.31655C22.2932 8.31655 24.1549 6.45482 24.1549 4.15827C24.1549 1.86172 22.2932 0 19.9967 0C17.7001 0 15.8384 1.86172 15.8384 4.15827C15.8384 6.45482 17.7001 8.31655 19.9967 8.31655Z" fill="white"/>
<path d="M38.7177 20.4392H37.655C37.655 18.4515 37.655 18.881 37.655 16.8809C37.655 16.5129 37.3567 16.2146 36.9888 16.2146H35.1686C34.8006 16.2146 34.5024 16.5129 34.5024 16.8809C34.5024 18.8811 34.5024 18.4513 34.5024 20.4392H32.0669C32.0306 19.3337 31.9384 16.5198 31.9038 15.4669C31.8863 14.9332 31.6393 14.433 31.2261 14.0948L26.716 10.3936C26.1542 9.93262 25.45 9.68066 24.7234 9.68066H15.2711C14.5459 9.68066 13.8431 9.9316 13.2818 10.3909L8.75576 14.0949C8.34256 14.4331 8.09538 14.9333 8.07803 15.467C8.0435 16.5221 7.95108 19.3388 7.91498 20.4392H5.49765C5.49765 18.4516 5.49765 18.8811 5.49765 16.881C5.49765 16.513 5.19937 16.2147 4.8314 16.2147H3.01124C2.64328 16.2147 2.345 16.513 2.345 16.881C2.345 18.8812 2.345 18.4514 2.345 20.4392H1.2825C0.585936 20.4392 0.0214844 21.0038 0.0214844 21.7003C0.0214844 22.3967 0.586093 22.9613 1.2825 22.9613H2.345C2.345 24.9489 2.345 24.5194 2.345 26.5195C2.345 26.8875 2.64328 27.1858 3.01124 27.1858H4.8314C5.19937 27.1858 5.49765 26.8875 5.49765 26.5195C5.49765 24.5193 5.49765 24.9491 5.49765 22.9613H8.05538C8.34967 23.5489 8.94826 23.9609 9.65123 23.9839C9.67194 23.9846 9.69248 23.9849 9.71303 23.9849C10.4333 23.9849 11.0612 23.5698 11.3664 22.9612H28.6151C28.9203 23.5699 29.5482 23.985 30.2685 23.9849C30.289 23.9849 30.3096 23.9846 30.3303 23.9839C31.0333 23.9609 31.6319 23.5488 31.9262 22.9613H34.5022C34.5022 24.9489 34.5022 24.5194 34.5022 26.5195C34.5022 26.8875 34.8005 27.1858 35.1684 27.1858H36.9886C37.3566 27.1858 37.6549 26.8875 37.6549 26.5195C37.6549 24.5193 37.6549 24.9491 37.6549 22.9613H38.7175C39.4141 22.9612 39.9787 22.3966 39.9787 21.7002C39.9787 21.0038 39.4141 20.4392 38.7177 20.4392ZM11.6202 20.4391C11.6765 18.7223 11.6422 19.7668 11.7518 16.4282L14.6615 14.0465V18.7997H25.289V14.0208L28.23 16.4282C28.3222 19.2405 28.2938 18.3724 28.3616 20.4391H11.6202Z" fill="white"/>
</g>
<defs>
<clipPath id="clip0_320_1809">
<rect width="40" height="40" fill="white"/>
</clipPath>
</defs>
</svg>
