<svg width="56" height="57" viewBox="0 0 56 57" fill="none" xmlns="http://www.w3.org/2000/svg">
<path d="M25.3667 7.24375C25.3396 7.17522 25.2958 7.11453 25.2394 7.06717C25.1829 7.01981 25.1156 6.98727 25.0434 6.9725L21.3732 6.23356C21.2931 6.21677 21.2098 6.22306 21.1331 6.25172C21.0565 6.28038 20.9895 6.33022 20.94 6.39544C19.0986 8.81438 18.7963 12.0164 18.9061 14.8729C19.3278 14.9467 19.7551 14.9833 20.1832 14.9823C20.6469 14.9821 21.1097 14.9396 21.5657 14.8554C21.9725 12.3266 23.7221 9.73663 25.3054 7.66375C25.3504 7.6047 25.3797 7.53515 25.3904 7.46168C25.4011 7.3882 25.3929 7.3132 25.3667 7.24375Z" fill="#F41E1E"/>
<path d="M18.0688 12.3686C18.025 12.9325 18.0075 13.5231 18.0119 14.14C17.8763 14.1487 17.7407 14.1531 17.6094 14.1531C15.4134 14.1794 13.2727 13.4643 11.5334 12.1236C9.19759 10.3036 7.8584 7.504 7.74115 4.23193L13.0296 8.40087H12.5353C12.4192 8.40087 12.308 8.44697 12.2259 8.52901C12.1439 8.61106 12.0978 8.72234 12.0978 8.83837C12.0978 8.9544 12.1439 9.06568 12.2259 9.14773C12.308 9.22978 12.4192 9.27587 12.5353 9.27587H14.1405L15.4442 10.3036H14.9761C14.8601 10.3036 14.7488 10.3497 14.6667 10.4317C14.5847 10.5137 14.5386 10.625 14.5386 10.7411C14.5386 10.8571 14.5847 10.9684 14.6667 11.0504C14.7488 11.1325 14.8601 11.1786 14.9761 11.1786H16.5555L18.0688 12.3686Z" fill="#F41E1E"/>
<path d="M19.075 7.88032C18.6141 8.98476 18.3093 10.148 18.1694 11.3366L17.1806 10.5578V8.97407C17.1806 8.85803 17.1345 8.74675 17.0525 8.66471C16.9704 8.58266 16.8592 8.53657 16.7431 8.53657C16.6271 8.53657 16.5158 8.58266 16.4338 8.66471C16.3517 8.74675 16.3056 8.85803 16.3056 8.97407V9.86875L14.7438 8.63719V7.07094C14.7438 6.95491 14.6977 6.84363 14.6156 6.76158C14.5336 6.67953 14.4223 6.63344 14.3063 6.63344C14.1902 6.63344 14.0789 6.67953 13.9969 6.76158C13.9149 6.84363 13.8688 6.95491 13.8688 7.07094V7.94594L8.31995 3.57619C11.4958 2.91557 14.5097 3.54119 16.8193 5.34325C17.7189 6.04502 18.4833 6.90473 19.075 7.88032Z" fill="#F41E1E"/>
<path d="M42.7197 41.85C42.6628 43.1362 42.6585 44.5402 42.7022 45.9139C42.7066 46.0495 42.711 46.1808 42.7197 46.3077H30.9877C30.9965 46.1808 31.0008 46.0539 31.0052 45.9227C31.0533 44.6539 31.0446 43.2456 30.9877 41.8456C30.9838 41.7187 30.9746 41.5919 30.9702 41.4694H42.7438C42.7328 41.5932 42.7241 41.7187 42.7197 41.85Z" fill="#F41E1E"/>
<path d="M54.1061 51.4881H54.1017C53.2096 52.4852 51.4246 53.0802 49.3329 53.0802C47.2412 53.0802 45.4527 52.4852 44.5607 51.4881C43.8782 50.7225 43.6507 48.0192 43.5763 45.8846C43.5326 44.5546 43.5369 43.1721 43.5938 41.8907C43.6682 40.268 43.8869 37.4159 44.5301 36.5234C45.4965 35.1851 47.6446 34.7082 49.3329 34.7082C50.2383 34.7038 51.1388 34.8411 52.0017 35.1151C52.8408 35.3495 53.5856 35.8404 54.1319 36.519C55.4711 38.3736 55.4492 49.9831 54.1061 51.4881Z" fill="#F41E1E"/>
<path d="M30.1306 45.889C30.0562 48.0192 29.8287 50.7225 29.1506 51.489C28.2537 52.486 26.4735 53.081 24.3784 53.081C22.2832 53.081 20.5025 52.486 19.6057 51.489C18.7486 50.5265 18.613 46.4236 18.5955 44.7042C18.5649 41.598 18.8011 37.5962 19.5794 36.5199C20.5419 35.186 22.6896 34.7091 24.3784 34.7091C26.0671 34.7091 28.2144 35.186 29.1769 36.5199C29.785 37.3643 30.0212 39.9057 30.1131 41.8872C30.17 43.2294 30.1787 44.6115 30.1306 45.889Z" fill="#F41E1E"/>
<path d="M26.7448 14.6737C25.5066 14.6751 24.2786 14.8973 23.1184 15.33C21.2257 16.0299 19.1451 16.0299 17.2524 15.33C16.0923 14.8973 14.8644 14.6751 13.6264 14.6737C6.59662 14.6737 0.875 21.8605 0.875 30.6967C0.875 39.5329 6.59662 46.7241 13.6264 46.7241C15.0442 46.7249 16.4469 46.4332 17.7467 45.867C17.7336 45.4951 17.7249 45.1101 17.7205 44.712C17.6986 42.5993 17.7686 37.5296 18.8711 36.0058C20.3232 33.9893 23.4552 33.8318 24.3784 33.8318C25.3015 33.8318 28.4331 33.9893 29.8856 36.0058C30.0825 36.2814 30.6469 37.0645 30.9133 40.5947H36.7706C38.5886 37.6157 39.5314 34.1851 39.4914 30.6954C39.4914 21.8605 33.775 14.6737 26.7448 14.6737ZM11.7495 19.2749C9.35681 19.2749 6.825 22.2149 6.825 23.7986C6.825 23.9147 6.77891 24.026 6.69686 24.108C6.61481 24.19 6.50353 24.2361 6.3875 24.2361C6.27147 24.2361 6.16019 24.19 6.07814 24.108C5.99609 24.026 5.95 23.9147 5.95 23.7986C5.95 21.6199 9.00769 18.4003 11.7504 18.4003C11.8664 18.4003 11.9777 18.4464 12.0597 18.5285C12.1418 18.6105 12.1879 18.7218 12.1879 18.8378C12.1879 18.9539 12.1418 19.0651 12.0597 19.1472C11.9777 19.2292 11.8664 19.2753 11.7504 19.2753L11.7495 19.2749Z" fill="#F41E1E"/>
</svg>
