<svg width="40" height="36" viewBox="0 0 40 36" fill="none" xmlns="http://www.w3.org/2000/svg">
<path d="M29.0867 26.4372L30.4695 25.352C30.0166 25.3467 29.629 25.0219 29.5457 24.575C29.4715 24.1772 29.4027 23.7934 29.3383 23.4204L27.4971 24.8654L28.766 27.6523L29.0867 26.4372Z" fill="#F41E1E"/>
<path d="M29.7545 24.5361C29.8209 24.8917 30.1313 25.1399 30.4805 25.1399C30.5254 25.1399 30.5711 25.1359 30.6169 25.1273C31.0183 25.0524 31.283 24.6663 31.2081 24.265C30.6516 21.2817 30.4548 19.4275 30.4066 18.2909L30.6196 18.3011C30.6688 19.4291 30.8652 21.2681 31.4171 24.226C31.4415 24.3572 31.4378 24.4889 31.4085 24.6151L33.832 22.7131C34.0386 22.551 34.1715 22.3301 34.2268 22.0927C34.2288 22.0922 34.2307 22.0917 34.2327 22.0911L37.8817 30.1046C38.0676 30.5129 38.4703 30.7543 38.8915 30.7543C39.0453 30.7543 39.2015 30.7222 39.3505 30.6543C39.908 30.4005 40.1541 29.743 39.9002 29.1855L33.6161 15.385C33.5963 15.3415 33.5732 15.3005 33.5486 15.2608C33.6205 14.7102 33.662 13.9181 33.5254 12.984C33.2894 11.3698 32.4587 8.99486 29.841 6.84788C29.5253 6.5889 29.0595 6.635 28.8005 6.95069C28.5415 7.26639 28.5876 7.73221 28.9033 7.99119C30.8734 9.60717 31.6867 11.3351 31.9877 12.7408C32.294 13.0788 32.5034 13.5084 32.5644 13.9892C32.7231 15.243 31.8324 16.3922 30.5787 16.5509C30.4824 16.5631 30.3845 16.5693 30.2879 16.5693C29.843 16.5693 29.4249 16.4392 29.0701 16.2149C28.9806 16.5186 28.9316 16.9209 28.9181 17.4426C28.9121 17.68 28.9146 17.9407 28.924 18.2197C28.9754 19.7315 29.253 21.8487 29.7545 24.5361Z" fill="#F41E1E"/>
<path d="M30.5544 16.3296C31.6935 16.1849 32.4997 15.1441 32.355 14.0048C32.2103 12.8656 31.1695 12.0594 30.0304 12.2041C28.8912 12.3488 28.0851 13.3896 28.2298 14.5288C28.3745 15.668 29.4152 16.4743 30.5544 16.3296Z" fill="#F41E1E"/>
<path d="M0.826171 30.7172C0.921055 30.7422 1.01634 30.7542 1.11002 30.7542C1.60123 30.7542 2.05025 30.4253 2.18156 29.928L3.10311 26.4371L4.48592 25.3518C4.033 25.3466 3.6454 25.0218 3.56208 24.5749C3.48789 24.1771 3.41908 23.7932 3.35457 23.4203L1.44117 24.9219C1.25127 25.0709 1.11512 25.2778 1.05357 25.5112L0.036995 29.3618C-0.119308 29.9541 0.23402 30.5609 0.826171 30.7172Z" fill="#F41E1E"/>
<path d="M3.77107 24.536C3.83746 24.8916 4.14791 25.1398 4.49707 25.1398C4.54196 25.1398 4.58766 25.1358 4.63349 25.1272C5.03493 25.0523 5.29956 24.6662 5.2247 24.2649C4.66816 21.2815 4.47141 19.4274 4.42316 18.2908L4.63618 18.301C4.68536 19.429 4.88185 21.268 5.43368 24.2259C5.45814 24.3571 5.45438 24.4888 5.42508 24.615L7.84865 22.713C8.05522 22.5509 8.18814 22.33 8.24338 22.0926C8.24539 22.0921 8.24727 22.0915 8.24929 22.091L11.0611 28.2659L11.2082 27.7091C11.3342 27.2311 11.6179 26.8 12.0066 26.4949L12.5114 26.0987L7.63268 15.3848C7.61292 15.3412 7.58981 15.3002 7.56521 15.2606C7.63711 14.71 7.67864 13.9178 7.54196 12.9838C7.30596 11.3695 6.47526 8.99462 3.85762 6.84764C3.54192 6.58866 3.0761 6.63475 2.81712 6.95045C2.55814 7.26615 2.60424 7.73197 2.91993 7.99095C4.88992 9.60693 5.70315 11.3349 6.00433 12.7405C6.31062 13.0785 6.52001 13.5082 6.58103 13.9889C6.73975 15.2427 5.84897 16.3919 4.59532 16.5507C4.49896 16.5629 4.40112 16.5691 4.30448 16.5691C3.85963 16.5691 3.44153 16.439 3.08672 16.2147C2.99721 16.5184 2.94816 16.9206 2.93472 17.4424C2.92867 17.6797 2.93122 17.9404 2.94063 18.2195C2.99197 19.7314 3.26963 21.8486 3.77107 24.536Z" fill="#F41E1E"/>
<path d="M4.57308 16.3375C5.7123 16.1928 6.51852 15.152 6.37382 14.0127C6.22912 12.8735 5.1883 12.0673 4.04907 12.212C2.90985 12.3567 2.10363 13.3975 2.24833 14.5367C2.39303 15.676 3.43386 16.4822 4.57308 16.3375Z" fill="#F41E1E"/>
<path d="M19.8964 11.1239C20.1273 12.9471 18.8319 14.6185 17.0087 14.8495C16.8685 14.8673 16.7262 14.8763 16.5858 14.8763C15.9389 14.8763 15.3309 14.687 14.8149 14.361C14.6848 14.8027 14.6133 15.3876 14.5938 16.1463C14.537 18.3621 14.9461 21.833 15.8098 26.4624C15.9063 26.9796 16.3579 27.3406 16.8655 27.3406C16.9308 27.3406 16.9972 27.3347 17.0639 27.3222C17.6477 27.2132 18.0326 26.6518 17.9236 26.0681C17.1142 21.7295 16.8282 19.0331 16.7579 17.3801L17.0677 17.395C17.1392 19.0354 17.425 21.7098 18.2275 26.0114C18.2631 26.2021 18.2576 26.3938 18.215 26.5772L21.7397 23.8112C22.0402 23.5755 22.2335 23.2541 22.3137 22.909C22.3165 22.9082 22.3193 22.9075 22.3223 22.9066L27.6291 34.5606C27.8995 35.1544 28.4852 35.5054 29.0978 35.5054C29.3214 35.5054 29.5485 35.4587 29.7652 35.36C30.5758 34.9908 30.9337 34.0346 30.5646 33.2239L21.4256 13.1541C21.397 13.0912 21.3636 13.0321 21.3282 12.9747C21.4326 12.1741 21.4923 11.0196 21.2938 9.66249C20.9505 7.31499 19.7424 3.86113 15.9358 0.7387C15.4767 0.361987 14.7992 0.429051 14.4226 0.888149C14.046 1.34725 14.113 2.02474 14.5721 2.40132C17.4371 4.75151 18.6197 7.26432 19.0575 9.30835C19.5032 9.79971 19.8079 10.4248 19.8964 11.1239Z" fill="#F41E1E"/>
<path d="M10.379 33.4806C10.1517 34.3418 10.6655 35.2242 11.5266 35.4516C11.6645 35.4881 11.8032 35.5054 11.9393 35.5054C12.6536 35.5054 13.3067 35.0272 13.4977 34.3039L14.838 29.2272L16.849 27.649C16.1903 27.6413 15.6266 27.1689 15.5054 26.5191C15.3975 25.9407 15.2975 25.3824 15.2037 24.84L12.421 27.0238C12.1448 27.2404 11.947 27.5415 11.8573 27.8808L10.379 33.4806Z" fill="#F41E1E"/>
<path d="M16.9727 14.5365C18.6294 14.3261 19.8018 12.8125 19.5914 11.1558C19.381 9.49909 17.8674 8.32665 16.2107 8.53708C14.554 8.74751 13.3815 10.2611 13.592 11.9178C13.8024 13.5745 15.316 14.747 16.9727 14.5365Z" fill="#F41E1E"/>
</svg>
