<svg width="40" height="34" viewBox="0 0 40 34" fill="none" xmlns="http://www.w3.org/2000/svg">
<path d="M4.76562 2.15625C4.76562 1.50906 4.24094 0.984375 3.59375 0.984375H1.17188C0.524687 0.984375 0 1.50906 0 2.15625V17.7812C0 18.4284 0.524687 18.9531 1.17188 18.9531H3.59375C4.24094 18.9531 4.76562 18.4284 4.76562 17.7812V12.7031H7.10938V7.23438H4.76562V2.15625Z" fill="#F41E1E"/>
<path d="M38.8281 0.984375H36.4062C35.7591 0.984375 35.2344 1.50906 35.2344 2.15625V7.23438H32.8906V12.7031H35.2344V17.7812C35.2344 18.4284 35.7591 18.9531 36.4062 18.9531H38.8281C39.4753 18.9531 40 18.4284 40 17.7812V2.15625C40 1.50906 39.4753 0.984375 38.8281 0.984375Z" fill="#F41E1E"/>
<path d="M27.9102 4.10938C26.4539 4.10938 25.2734 5.28984 25.2734 6.74609C25.2734 5.28984 24.093 4.10938 22.6367 4.10938C21.1805 4.10938 20 5.28984 20 6.74609C20 5.28984 18.8195 4.10938 17.3633 4.10938C15.907 4.10938 14.7266 5.28984 14.7266 6.74609C14.7266 5.28984 13.5461 4.10938 12.0898 4.10938C10.6336 4.10938 9.45312 5.28984 9.45312 6.74609V11.6694C10.1639 11.3308 10.9585 11.1406 11.7969 11.1406H19.6094C19.7415 11.1406 19.8716 11.1486 20 11.1628C21.7553 11.3578 23.125 12.8498 23.125 14.6562V15.0469C23.125 15.2984 23.1101 15.5463 23.0811 15.7901C24.3256 15.5787 25.2734 14.4961 25.2734 13.1914C25.2734 14.6477 26.4539 15.8281 27.9102 15.8281C29.3664 15.8281 30.5469 14.6477 30.5469 13.1914V6.74609C30.5469 5.28984 29.3664 4.10938 27.9102 4.10938Z" fill="#F41E1E"/>
<path d="M25.2734 17.4138C24.5081 17.8934 23.6045 18.1719 22.6367 18.1719C22.6233 18.1719 22.61 18.1712 22.5966 18.1712C21.7174 20.0175 19.8337 21.2969 17.6562 21.2969H16.0938V21.6544C16.0938 22.2854 15.6088 22.8284 14.9785 22.858C14.3055 22.8898 13.75 22.3535 13.75 21.6875V20.125C13.75 19.4778 14.2747 18.9531 14.9219 18.9531H16.875C19.0323 18.9531 20.7812 17.2042 20.7812 15.0469V14.6562C20.7812 14.0091 20.2566 13.4844 19.6094 13.4844H11.7969C10.071 13.4844 8.67188 14.8835 8.67188 16.6094V21.6875C8.67188 24.787 11.0912 27.3322 14.1406 27.534V31.8438C14.1406 32.4909 14.6653 33.0156 15.3125 33.0156H24.6875C25.3347 33.0156 25.8594 32.4909 25.8594 31.8438V27.4291C28.5305 26.8846 30.5469 24.5171 30.5469 21.6875V17.4138C29.7816 17.8934 28.878 18.1719 27.9102 18.1719C26.9423 18.1719 26.0387 17.8934 25.2734 17.4138Z" fill="#F41E1E"/>
</svg>
