<svg width="56" height="56" viewBox="0 0 56 56" fill="none" xmlns="http://www.w3.org/2000/svg">
<path d="M50.75 42V36.75C50.75 36.2859 50.5656 35.8408 50.2374 35.5126C49.9093 35.1844 49.4641 35 49 35H45.5C45.0359 35 44.5907 35.1844 44.2626 35.5126C43.9344 35.8408 43.75 36.2859 43.75 36.75V42H29.75V36.75C29.75 36.2859 29.5656 35.8408 29.2374 35.5126C28.9092 35.1844 28.4641 35 28 35H24.5C24.0359 35 23.5908 35.1844 23.2626 35.5126C22.9344 35.8408 22.75 36.2859 22.75 36.75V42C22.2859 42 21.8408 42.1844 21.5126 42.5126C21.1844 42.8408 21 43.2859 21 43.75C21 44.2141 21.1844 44.6592 21.5126 44.9874C21.8408 45.3156 22.2859 45.5 22.75 45.5V50.75C22.75 51.2141 22.9344 51.6593 23.2626 51.9874C23.5908 52.3156 24.0359 52.5 24.5 52.5H28C28.4641 52.5 28.9092 52.3156 29.2374 51.9874C29.5656 51.6593 29.75 51.2141 29.75 50.75V45.5H43.75V50.75C43.75 51.2141 43.9344 51.6593 44.2626 51.9874C44.5907 52.3156 45.0359 52.5 45.5 52.5H49C49.4641 52.5 49.9093 52.3156 50.2374 51.9874C50.5656 51.6593 50.75 51.2141 50.75 50.75V45.5C51.2141 45.5 51.6593 45.3156 51.9874 44.9874C52.3156 44.6592 52.5 44.2141 52.5 43.75C52.5 43.2859 52.3156 42.8408 51.9874 42.5126C51.6593 42.1844 51.2141 42 50.75 42Z" fill="#F41E1E"/>
<path d="M15.75 10.5H26.25C27.1783 10.5 28.0685 10.1313 28.7249 9.47487C29.3813 8.8185 29.75 7.92826 29.75 7V5.25C29.75 4.78587 29.5656 4.34075 29.2374 4.01256C28.9093 3.68437 28.4641 3.5 28 3.5H14C13.5359 3.5 13.0908 3.68437 12.7626 4.01256C12.4344 4.34075 12.25 4.78587 12.25 5.25V7C12.25 7.92826 12.6187 8.8185 13.2751 9.47487C13.9315 10.1313 14.8217 10.5 15.75 10.5Z" fill="#F41E1E"/>
<path d="M33.25 50.75C33.2453 51.347 33.1387 51.9388 32.935 52.5H35C35.9283 52.5 36.8185 52.1313 37.4749 51.4749C38.1312 50.8185 38.5 49.9283 38.5 49H33.25V50.75Z" fill="#F41E1E"/>
<path d="M19.25 36.75C19.25 35.3576 19.8031 34.0223 20.7877 33.0377C21.7723 32.0531 23.1076 31.5 24.5 31.5H28C29.3924 31.5 30.7277 32.0531 31.7123 33.0377C32.6969 34.0223 33.25 35.3576 33.25 36.75V38.5H38.5V8.75C38.5 7.82174 38.1312 6.9315 37.4749 6.27513C36.8185 5.61875 35.9283 5.25 35 5.25H33.25V7C33.25 8.85652 32.5125 10.637 31.1997 11.9497C29.887 13.2625 28.1065 14 26.25 14H15.75C13.8935 14 12.113 13.2625 10.8003 11.9497C9.4875 10.637 8.75 8.85652 8.75 7V5.25H7C6.07174 5.25 5.1815 5.61875 4.52513 6.27513C3.86875 6.9315 3.5 7.82174 3.5 8.75V49C3.5 49.9283 3.86875 50.8185 4.52513 51.4749C5.1815 52.1312 6.07174 52.5 7 52.5H19.565C19.3613 51.9388 19.2547 51.347 19.25 50.75V47.635C18.7086 47.1429 18.2761 46.5432 17.9801 45.8741C17.6841 45.2051 17.5312 44.4816 17.5312 43.75C17.5312 43.0184 17.6841 42.2949 17.9801 41.6259C18.2761 40.9568 18.7086 40.3571 19.25 39.865V36.75ZM12.25 43.75C11.9039 43.75 11.5655 43.6474 11.2778 43.4551C10.99 43.2628 10.7657 42.9895 10.6332 42.6697C10.5008 42.3499 10.4661 41.9981 10.5336 41.6586C10.6011 41.3191 10.7678 41.0073 11.0126 40.7626C11.2573 40.5178 11.5691 40.3512 11.9086 40.2836C12.2481 40.2161 12.5999 40.2508 12.9197 40.3832C13.2395 40.5157 13.5128 40.74 13.7051 41.0278C13.8974 41.3155 14 41.6539 14 42C14 42.4641 13.8156 42.9092 13.4874 43.2374C13.1592 43.5656 12.7141 43.75 12.25 43.75ZM12.25 36.75C11.7859 36.75 11.3408 36.5656 11.0126 36.2374C10.6844 35.9093 10.5 35.4641 10.5 35C10.5 34.5359 10.6844 34.0907 11.0126 33.7626C11.3408 33.4344 11.7859 33.25 12.25 33.25C12.7141 33.25 13.1592 33.4344 13.4874 33.7626C13.8156 34.0907 14 34.5359 14 35C14 35.4641 13.8156 35.9093 13.4874 36.2374C13.1592 36.5656 12.7141 36.75 12.25 36.75ZM12.25 29.75C11.7859 29.75 11.3408 29.5656 11.0126 29.2374C10.6844 28.9093 10.5 28.4641 10.5 28C10.5 27.5359 10.6844 27.0908 11.0126 26.7626C11.3408 26.4344 11.7859 26.25 12.25 26.25C12.7141 26.25 13.1592 26.4344 13.4874 26.7626C13.8156 27.0908 14 27.5359 14 28C14 28.4641 13.8156 28.9093 13.4874 29.2374C13.1592 29.5656 12.7141 29.75 12.25 29.75ZM12.25 22.75C11.7859 22.75 11.3408 22.5656 11.0126 22.2374C10.6844 21.9092 10.5 21.4641 10.5 21C10.5 20.5359 10.6844 20.0908 11.0126 19.7626C11.3408 19.4344 11.7859 19.25 12.25 19.25C12.7141 19.25 13.1592 19.4344 13.4874 19.7626C13.8156 20.0908 14 20.5359 14 21C14 21.4641 13.8156 21.9092 13.4874 22.2374C13.1592 22.5656 12.7141 22.75 12.25 22.75ZM19.25 19.25H28C28.4641 19.25 28.9093 19.4344 29.2374 19.7626C29.5656 20.0908 29.75 20.5359 29.75 21C29.75 21.4641 29.5656 21.9092 29.2374 22.2374C28.9093 22.5656 28.4641 22.75 28 22.75H19.25C18.7859 22.75 18.3408 22.5656 18.0126 22.2374C17.6844 21.9092 17.5 21.4641 17.5 21C17.5 20.5359 17.6844 20.0908 18.0126 19.7626C18.3408 19.4344 18.7859 19.25 19.25 19.25ZM17.5 28C17.5 27.5359 17.6844 27.0908 18.0126 26.7626C18.3408 26.4344 18.7859 26.25 19.25 26.25H28C28.4641 26.25 28.9093 26.4344 29.2374 26.7626C29.5656 27.0908 29.75 27.5359 29.75 28C29.75 28.4641 29.5656 28.9093 29.2374 29.2374C28.9093 29.5656 28.4641 29.75 28 29.75H19.25C18.7859 29.75 18.3408 29.5656 18.0126 29.2374C17.6844 28.9093 17.5 28.4641 17.5 28Z" fill="#F41E1E"/>
</svg>
