<svg width="48" height="48" viewBox="0 0 48 48" fill="none" xmlns="http://www.w3.org/2000/svg">
<g clip-path="url(#clip0_317_1094)">
<path d="M5.1 32.7749C3.15 33.8249 1.8 35.6999 1.35 37.9499L0.375 47.9999H7.125V47.9249C7.125 47.6249 7.125 43.5749 7.125 43.0499C7.125 39.2999 6.45 35.6249 5.1 32.7749Z" fill="white"/>
<path d="M47.625 47.9999L46.575 37.9499C46.2 35.6999 44.775 33.8249 42.825 32.7749V32.8499C41.55 35.6249 40.875 39.2999 40.875 43.1249V47.9999H47.625Z" fill="white"/>
<path d="M41.4001 32.1748L35.1751 30.2998C33.9001 35.4748 29.2501 38.9998 24.0001 38.9998C18.6751 38.9998 14.1001 35.3998 12.8251 30.2998L6.6001 32.1748C7.8751 35.0998 8.7001 38.9248 8.7001 43.0498V47.9248H39.3001C39.3001 47.6248 39.3001 43.3498 39.3001 43.0498C39.3001 38.9248 40.1251 35.0998 41.4001 32.1748Z" fill="white"/>
<path d="M14.3252 29.9248C15.3752 34.2748 19.2752 37.4248 24.0002 37.4248C28.7252 37.4248 32.5502 34.1998 33.6752 29.9248H33.6002C32.7752 29.6998 32.0252 29.3248 31.3502 28.8748C30.9002 28.5748 30.6002 28.1248 30.3002 27.6748C29.1002 28.5748 27.6752 29.0998 26.1752 29.0998H21.8252C20.3252 29.0998 18.9002 28.5748 17.7002 27.6748C17.4002 28.1248 17.0252 28.4998 16.6502 28.8748C15.9752 29.3248 15.2252 29.6998 14.3252 29.9248C14.4002 29.9248 14.4002 29.9248 14.3252 29.9248Z" fill="white"/>
<path d="M14.8499 13.95C15.6749 11.7 16.2749 10.125 15.9749 8.475C15.8999 8.175 16.0499 7.95 16.1999 7.725C16.4249 7.575 16.7249 7.5 16.9499 7.575C21.6749 9 26.3249 9 30.9749 7.575H31.1999C31.4249 7.575 31.5749 7.65 31.7249 7.8C31.9499 7.95 32.0249 8.25 31.9499 8.55C31.6499 10.2 32.1749 11.775 33.0749 14.025L33.9749 8.475C34.2749 6.375 33.6749 4.275 32.3249 2.625C31.0499 0.9 29.0249 0 26.9249 0H21.1499C19.0499 0 17.0249 0.9 15.6749 2.55C14.3249 4.125 13.7249 6.3 14.0249 8.4L14.8499 13.95Z" fill="white"/>
<path d="M18.7502 25.4248C19.5752 26.2498 20.7002 26.6998 21.9002 26.6998H26.2502C27.3752 26.6998 28.5752 26.2498 29.4002 25.4248L31.5002 23.3248C32.3252 22.4998 32.7752 21.3748 32.7752 20.1748V17.0998C32.4752 16.2748 31.0502 12.3748 30.9002 11.9248C30.8252 11.7748 30.8252 11.6248 30.8252 11.4748C30.6002 10.7248 30.5252 10.0498 30.5252 9.2998C26.2502 10.4248 22.0502 10.4248 17.7752 9.2998C17.7752 9.9748 17.7002 10.7248 17.4752 11.3998C17.2502 12.2998 15.7502 16.2748 15.4502 17.0998V20.2498C15.4502 21.3748 15.9002 22.5748 16.7252 23.3998L18.7502 25.4248Z" fill="white"/>
<path d="M35.7749 16.5749C36.1499 14.9249 35.6249 13.7999 35.3249 13.7249C35.0999 13.6499 34.9499 13.6499 34.7999 13.6499L34.2749 17.0249V18.8999C34.3499 18.8999 34.4999 18.8999 34.5749 18.8249C34.9499 18.5249 35.5499 17.7749 35.7749 16.5749Z" fill="white"/>
<path d="M13.4251 18.8249C13.5001 18.8999 13.6501 18.8999 13.7251 18.8999V17.0249L13.2001 13.6499C13.0501 13.6499 12.9001 13.6499 12.6751 13.7249C12.3001 13.7999 11.8501 14.9249 12.2251 16.5749C12.4501 17.7749 13.0501 18.5249 13.4251 18.8249Z" fill="white"/>
</g>
<defs>
<clipPath id="clip0_317_1094">
<rect width="48" height="48" fill="white"/>
</clipPath>
</defs>
</svg>
