<svg width="36" height="36" viewBox="0 0 36 36" fill="none" xmlns="http://www.w3.org/2000/svg">
<g clip-path="url(#clip0_317_2868)">
<path d="M21.6492 10.8914C20.8546 10.6312 20.1304 10.2023 19.5117 9.64684C17.8734 8.17027 18.0632 5.85699 19.8703 4.59137C20.3062 4.28902 20.8406 4.09215 21.3468 3.90934C22.5281 3.4734 23.1187 2.53824 22.8304 1.46246C22.5281 0.337461 21.4945 -0.225039 20.2499 0.0773046C19.8421 0.175742 19.4484 0.309336 19.0617 0.464023C14.9414 2.15855 12.6421 7.10152 14.7374 10.6523C14.8851 10.9054 14.8078 11.3836 14.6742 11.6859C13.8445 13.5562 12.6984 15.3351 12.1499 17.2828C10.6874 22.5421 9.44995 27.8718 8.18432 33.1875C8.05073 33.7429 8.24057 34.4812 8.52182 35.0015C8.97182 35.8453 9.82963 36.1054 10.7718 35.9296C11.7773 35.7398 12.3187 35.0718 12.5367 34.1086C13.057 31.8164 14.6953 25.1789 15.0187 24.1523C15.0398 24.089 15.096 24.0468 15.1664 24.0468H15.2929C15.3632 24.0468 15.4265 24.0961 15.4406 24.1593C15.6796 25.0804 17.0789 30.9515 17.7328 33.7429C17.8242 34.1437 17.9296 34.5656 18.1335 34.9171C18.6679 35.8453 19.8351 36.2109 20.8265 35.8312C21.8882 35.4234 22.4367 34.425 22.1624 33.1523C21.621 30.607 20.9742 28.0828 20.4539 25.5304C20.3554 25.0453 20.271 24.5953 20.0882 24.2296L19.7507 23.0203C22.1062 22.8093 24.4828 20.7703 24.7218 18.45C24.9609 16.1296 24.1664 14.0906 23.1398 12.0867C22.8093 11.4679 22.3734 11.1234 21.6492 10.8914ZM19.0265 20.489L18.6679 19.2234C19.0476 18.0562 19.364 16.8679 19.7507 15.7007C19.8351 15.4336 20.1304 15.2367 20.3273 15.0117C20.5734 15.2296 20.9109 15.3984 21.0445 15.6656C22.1273 17.8171 21.3398 19.6453 19.0265 20.489Z" fill="white"/>
<path d="M24.5671 4.08512C22.7319 4.04293 21.2062 5.50543 21.171 7.34059V7.40387C21.1499 9.26012 22.6265 10.7437 24.5319 10.7789C26.3319 10.814 27.8366 9.33043 27.8647 7.49528C27.8858 5.59684 26.4515 4.11324 24.5671 4.08512Z" fill="white"/>
</g>
<defs>
<clipPath id="clip0_317_2868">
<rect width="36" height="36" fill="white"/>
</clipPath>
</defs>
</svg>
