<svg width="40" height="40" viewBox="0 0 40 40" fill="none" xmlns="http://www.w3.org/2000/svg">
<path d="M14.0625 30.0898V32.832L20.2344 38.0352C23.0008 35.6422 23.9039 34.968 25.9375 33.1602V30.0898H14.0625Z" fill="#F41E1E"/>
<path d="M37.6562 25.4023V21.8867C37.6562 19.975 36.0734 18.3711 34.1406 18.3711H28.2812V25.4023H11.7188V18.3711H5.85938C3.87969 18.3711 2.34375 20.0125 2.34375 21.8867V25.4023H0V27.7461H2.34375V31.2617C2.34375 33.2 3.92109 34.7773 5.85938 34.7773H11.7188V27.7461H28.2812V34.7773H34.1406C36.0789 34.7773 37.6562 33.2 37.6562 31.2617V27.7461H40V25.4023H37.6562Z" fill="#F41E1E"/>
<path d="M29.4531 1.96484C25.375 1.96484 21.7578 4.28516 20 7.68359C18.2422 4.28516 14.625 1.96484 10.5469 1.96484C4.35938 1.96484 0 6.79297 0 13.7305C0 15.4648 0.351562 17.082 0.984375 18.6523C2.01562 17.082 3.84375 16.0273 5.85938 16.0273H14.0625V23.0586H25.9375V16.0273H34.1406C36.1328 16.0273 37.9609 17.0586 39.0156 18.6758C39.625 17.082 40 15.4414 40 13.7305C40 6.79297 35.6406 1.96484 29.4531 1.96484Z" fill="#F41E1E"/>
</svg>
