<svg width="36" height="32" viewBox="0 0 36 32" fill="none" xmlns="http://www.w3.org/2000/svg">
<path fill-rule="evenodd" clip-rule="evenodd" d="M5.90317 4.10837H9.36725C9.39733 4.10837 9.42284 4.09061 9.43332 4.06245C9.83948 2.97317 11.0833 2.42277 12.174 2.89013C12.7021 3.11645 13.0991 3.54613 13.2921 4.06253C13.3026 4.09061 13.3282 4.10837 13.3582 4.10837H22.5941C22.6242 4.10837 22.6497 4.09053 22.6602 4.06237C23.1873 2.64773 25.0312 2.25645 26.0836 3.36549C26.2782 3.57053 26.4241 3.80829 26.5189 4.06245C26.5294 4.09061 26.555 4.10837 26.5851 4.10837H30.0492C30.088 4.10837 30.1197 4.07669 30.1197 4.03781V0.835086C30.1197 0.796206 30.1514 0.764526 30.1903 0.764526H33.217C33.2559 0.764526 33.2876 0.796206 33.2876 0.835086V8.43765C33.2876 8.47653 33.2559 8.50821 33.217 8.50821H30.1903C30.1514 8.50821 30.1197 8.47653 30.1197 8.43765V5.23493C30.1197 5.19605 30.088 5.16437 30.0492 5.16437H26.6714C26.5689 5.16437 26.6064 5.33525 26.4527 5.66117C26.443 5.68173 26.4434 5.70365 26.454 5.72381C27.3951 7.53357 28.071 9.27477 28.4816 10.9473C29.0922 13.434 29.0906 13.6577 27.0416 15.3408C25.686 16.4544 24.2168 17.1074 22.634 17.3C22.5963 17.3046 22.569 17.3384 22.5724 17.3763C22.7752 19.7032 20.3827 19.4047 20.8707 22.7136C20.8756 22.7472 20.8611 22.7665 20.8375 22.7849C19.784 23.5984 18.6896 24.1696 18.0631 25.3937C18.0368 25.4451 17.9637 25.4451 17.9375 25.3937C17.3112 24.17 16.217 23.5986 15.1638 22.7854C15.126 22.7561 15.078 22.7395 15.0862 22.6832C15.5549 19.4066 13.178 19.6959 13.3802 17.3762C13.3836 17.3383 13.3562 17.3045 13.3185 17.3C11.7358 17.1073 10.2665 16.4543 8.91101 15.3408C6.86205 13.6576 6.86044 13.4339 7.471 10.9472C7.88164 9.27477 8.55756 7.53357 9.49868 5.72373C9.50916 5.70357 9.50964 5.68165 9.49988 5.66109C9.3462 5.33517 9.38365 5.16429 9.28117 5.16429H5.90317C5.86429 5.16429 5.8326 5.19597 5.8326 5.23485V8.43757C5.8326 8.47645 5.80093 8.50813 5.76205 8.50813H2.73525C2.69637 8.50813 2.66469 8.47645 2.66469 8.43757V0.835086C2.66469 0.796206 2.69637 0.764526 2.73525 0.764526H5.76197C5.80085 0.764526 5.83252 0.796206 5.83252 0.835086V4.03781C5.83252 4.07669 5.86429 4.10837 5.90317 4.10837ZM14.5151 23.6189L8.24813 19.3847C7.56261 18.9215 6.62276 19.1034 6.15956 19.7889C5.85996 20.2324 5.97748 20.8452 6.42156 21.1452L10.8028 24.1053C11.0442 24.2682 11.108 24.596 10.9451 24.8375C10.7822 25.0789 10.4544 25.1427 10.2129 24.9798L5.83172 22.0197C5.36884 21.707 5.07581 21.2324 4.97669 20.7205C4.58157 18.6791 5.96005 20.3931 4.41981 16.5988L2.70765 12.3805C2.37517 11.5613 1.26069 11.5178 0.799965 12.1865C0.626125 12.4389 0.571725 12.7219 0.639725 13.0208C1.34973 16.1408 2.02165 21.3661 3.90109 23.8352C5.26061 25.6212 6.82141 26.0844 8.50012 27.4596C9.79956 28.524 10.4986 29.7938 10.9093 31.1848C10.9183 31.2153 10.9452 31.2355 10.977 31.2355H17.4368C17.4772 31.2355 17.509 31.2023 17.5073 31.162L17.3457 27.3129C17.2594 25.2572 15.9497 24.7265 14.5188 23.6216L14.5151 23.6189ZM21.4852 23.6189L21.4816 23.6216C20.0506 24.7264 18.7408 25.2572 18.6546 27.3128L18.493 31.1619C18.4913 31.2022 18.5232 31.2354 18.5636 31.2354H25.0233C25.0551 31.2354 25.082 31.2152 25.091 31.1848C25.5017 29.7936 26.2008 28.524 27.5002 27.4596C29.1789 26.0844 30.7397 25.6212 32.0992 23.8352C33.9787 21.366 34.6507 16.1407 35.3606 13.0207C35.4286 12.7218 35.3743 12.4388 35.2004 12.1864C34.7397 11.5177 33.6252 11.5612 33.2927 12.3804L31.2324 17.4564C30.9647 18.1159 30.4144 18.7576 30.7125 19.2009L30.7686 19.2856C31.081 19.748 31.1212 20.211 31.0223 20.7215C30.9232 21.2334 30.6301 21.708 30.1672 22.0207L25.786 24.9808C25.5446 25.1436 25.2168 25.08 25.0539 24.8384C24.891 24.597 24.9547 24.2692 25.1962 24.1063L29.5773 21.1462C30.0214 20.8462 30.1389 20.2334 29.8393 19.7899L29.8407 19.789C29.3775 19.1035 28.4376 18.9216 27.7521 19.3848L21.4852 23.6189ZM17.9761 8.78429C16.6884 8.78429 15.6444 9.82821 15.6444 11.116C15.6444 12.4037 16.6884 13.4476 17.9761 13.4476C19.2639 13.4476 20.3078 12.4037 20.3078 11.116C20.3078 9.82821 19.2639 8.78429 17.9761 8.78429ZM22.5078 5.16437H13.4302C13.3986 5.16437 13.3718 5.18421 13.3627 5.21445C13.1612 5.87877 12.4717 6.33429 11.775 6.56349C11.745 6.57341 11.7258 6.60061 11.7265 6.63213C11.78 8.95741 11.6262 10.8731 10.8156 12.0796C10.7832 12.128 10.8197 12.1925 10.8779 12.1894C12.6786 12.0952 14.003 12.5058 14.8509 13.4212C15.6298 14.2621 20.3224 14.2621 21.1012 13.4212C21.949 12.506 23.273 12.0954 25.0732 12.1893C25.1317 12.1924 25.1683 12.1271 25.135 12.0788C24.31 10.8823 23.9224 9.12285 23.9724 6.80061C23.973 6.76933 23.9542 6.74237 23.9246 6.73229C23.2353 6.49725 22.7282 5.91853 22.5768 5.21989C22.5696 5.18717 22.5414 5.16437 22.5078 5.16437Z" fill="white"/>
</svg>
