<svg width="48" height="32" viewBox="0 0 48 32" fill="none" xmlns="http://www.w3.org/2000/svg">
<path d="M16.2041 1.77341V21.4177C16.2041 22.2731 15.5112 22.966 14.6558 22.966H7.61771C6.76323 22.966 6.0694 22.2731 6.0694 21.4177V19.0371H1.54832C0.692871 19.0371 0 18.3443 0 17.4888V5.70226C0 4.84682 0.692871 4.15395 1.54832 4.15395H6.0694V1.77341C6.0694 0.917969 6.76323 0.225098 7.61771 0.225098H14.6558C15.5112 0.225098 16.2041 0.917969 16.2041 1.77341Z" fill="white"/>
<path d="M44.5141 5.70226V8.52116C44.5141 9.08446 43.9317 9.45896 43.4195 9.22458C37.1853 6.37201 29.8468 9.43486 27.4507 15.8379C27.3365 16.1437 27.0491 16.3489 26.723 16.3489H20.074C19.6464 16.3489 19.2998 16.0022 19.2998 15.5747V7.61637C19.2998 7.18884 19.6464 6.84221 20.074 6.84221H28.31V1.77341C28.31 0.918259 29.0032 0.225098 29.8583 0.225098H36.8964C37.7509 0.225098 38.4447 0.917969 38.4447 1.77341V4.15395H42.9658C43.821 4.15395 44.5141 4.84711 44.5141 5.70226Z" fill="white"/>
<path d="M45.2206 13.2619C41.5153 9.5566 35.515 9.55525 31.8083 13.2619C28.103 16.9672 28.1016 22.9675 31.8083 26.6742L35.7778 30.6427C37.2853 32.1521 39.7434 32.1523 41.2511 30.6427L45.2206 26.6742C48.9259 22.9688 48.9272 16.9686 45.2206 13.2619ZM38.5144 22.4821C36.9671 22.4821 35.7081 21.2232 35.7081 19.6758C35.7081 18.1285 36.9671 16.8695 38.5144 16.8695C40.0618 16.8695 41.3208 18.1285 41.3208 19.6758C41.3208 21.2232 40.0618 22.4821 38.5144 22.4821Z" fill="white"/>
</svg>
