<svg width="36" height="36" viewBox="0 0 36 36" fill="none" xmlns="http://www.w3.org/2000/svg">
<g clip-path="url(#clip0_317_2832)">
<path d="M30.4294 33.5058L29.2203 25.5793C29.1235 24.9452 28.7508 24.3865 28.2025 24.0538L25.0506 22.1406C23.4069 22.1406 12.5185 22.1406 10.9526 22.1406L7.80079 24.0538C7.25243 24.3866 6.87977 24.9452 6.78302 25.5793L5.57379 33.5058C5.3933 34.6889 6.20618 35.7942 7.38919 35.9748C8.57205 36.1551 9.67764 35.3427 9.85813 34.1594L10.9147 27.2333L15.9153 24.1979H20.088L25.0886 27.2333L26.1452 34.1594C26.3258 35.343 27.4317 36.1552 28.6142 35.9748C29.797 35.7943 30.6098 34.689 30.4294 33.5058Z" fill="white"/>
<path d="M17.9971 7.48489C20.064 7.48489 21.7395 5.80934 21.7395 3.74245C21.7395 1.67555 20.064 0 17.9971 0C15.9302 0 14.2546 1.67555 14.2546 3.74245C14.2546 5.80934 15.9302 7.48489 17.9971 7.48489Z" fill="white"/>
<path d="M34.8458 18.3953H33.8895C33.8895 16.6064 33.8895 16.993 33.8895 15.1928C33.8895 14.8617 33.621 14.5932 33.2898 14.5932H31.6517C31.3205 14.5932 31.0521 14.8617 31.0521 15.1928C31.0521 16.9931 31.0521 16.6063 31.0521 18.3953H28.8602C28.8275 17.4004 28.7445 14.8679 28.7134 13.9203C28.6977 13.44 28.4753 12.9897 28.1035 12.6854L24.0443 9.35425C23.5388 8.9394 22.905 8.71265 22.251 8.71265H13.7439C13.0913 8.71265 12.4587 8.93849 11.9536 9.35186L7.88014 12.6854C7.50826 12.9898 7.28579 13.44 7.27018 13.9203C7.2391 14.87 7.15592 17.405 7.12344 18.3954H4.94783C4.94783 16.6065 4.94783 16.9931 4.94783 15.1929C4.94783 14.8617 4.67938 14.5933 4.34821 14.5933H2.71007C2.3789 14.5933 2.11045 14.8617 2.11045 15.1929C2.11045 16.9931 2.11045 16.6063 2.11045 18.3954H1.1542C0.527294 18.3954 0.0192871 18.9035 0.0192871 19.5303C0.0192871 20.1571 0.527435 20.6652 1.1542 20.6652H2.11045C2.11045 22.4541 2.11045 22.0675 2.11045 23.8676C2.11045 24.1988 2.3789 24.4673 2.71007 24.4673H4.34821C4.67938 24.4673 4.94783 24.1988 4.94783 23.8676C4.94783 22.0674 4.94783 22.4542 4.94783 20.6652H7.24979C7.51466 21.1941 8.05339 21.5648 8.68606 21.5856C8.70469 21.5862 8.72318 21.5865 8.74168 21.5865C9.38989 21.5864 9.95506 21.2128 10.2297 20.6651H25.7535C26.0282 21.2129 26.5934 21.5866 27.2416 21.5865C27.2601 21.5865 27.2786 21.5862 27.2973 21.5856C27.9299 21.5648 28.4687 21.1939 28.7335 20.6652H31.0519C31.0519 22.4541 31.0519 22.0675 31.0519 23.8676C31.0519 24.1988 31.3204 24.4673 31.6516 24.4673H33.2897C33.6209 24.4673 33.8893 24.1988 33.8893 23.8676C33.8893 22.0674 33.8893 22.4542 33.8893 20.6652H34.8457C35.4727 20.6651 35.9808 20.157 35.9808 19.5302C35.9808 18.9034 35.4726 18.3953 34.8458 18.3953ZM10.4581 18.3952C10.5088 16.8501 10.478 17.7902 10.5765 14.7854L13.1953 12.6419V16.9198H22.7601V12.6188L25.407 14.7854C25.4899 17.3165 25.4643 16.5352 25.5254 18.3952H10.4581Z" fill="white"/>
</g>
<defs>
<clipPath id="clip0_317_2832">
<rect width="36" height="36" fill="white"/>
</clipPath>
</defs>
</svg>
