<svg width="24" height="24" viewBox="0 0 24 24" fill="none" xmlns="http://www.w3.org/2000/svg">
<path d="M2.52377 14.9399L2.48252 14.8987L1.89377 15.4874C1.6149 15.7695 1.4585 16.1502 1.4585 16.5468C1.4585 16.9435 1.6149 17.3241 1.89377 17.6062L6.39377 22.1062C6.67584 22.3851 7.0565 22.5415 7.45315 22.5415C7.8498 22.5415 8.23045 22.3851 8.51252 22.1062L9.10502 21.5137C9.09452 21.5208 2.77609 15.1917 2.52377 14.9399Z" fill="#F41E1E"/>
<path d="M5.97374 11.4901C4.15014 9.69091 1.25699 12.5822 3.05254 14.4076L9.59249 20.9476C9.76946 21.1266 9.98031 21.2685 10.2128 21.3651C10.4452 21.4617 10.6945 21.511 10.9462 21.5101C11.2477 21.5047 11.5443 21.4326 11.8146 21.299C12.085 21.1655 12.3224 20.9737 12.51 20.7376C12.6883 20.5597 12.8298 20.3484 12.9263 20.1158C13.0228 19.8832 13.0725 19.6338 13.0725 19.382C13.0725 19.1301 13.0228 18.8808 12.9263 18.6481C12.8298 18.4155 12.6883 18.2042 12.51 18.0264L5.97374 11.4901Z" fill="#F41E1E"/>
<path d="M14.4075 3.05261C12.5758 1.25692 9.69444 4.13422 11.4901 5.97386L18.0263 12.5101C18.2043 12.6887 18.4159 12.8303 18.6489 12.9268C18.8819 13.0234 19.1316 13.0729 19.3838 13.0726C19.6851 13.0662 19.9814 12.9938 20.2516 12.8603C20.5218 12.7268 20.7594 12.5355 20.9475 12.3001C21.3059 11.9407 21.5072 11.4539 21.5072 10.9464C21.5072 10.4388 21.3059 9.95197 20.9475 9.59261L14.4075 3.05261Z" fill="#F41E1E"/>
<path d="M22.1063 6.39377L17.6063 1.89377C17.3242 1.6149 16.9435 1.4585 16.5469 1.4585C16.1502 1.4585 15.7696 1.6149 15.4875 1.89377L14.895 2.48627C14.9064 2.47958 20.7852 8.36912 21.4763 9.06002L21.5175 9.10127L22.1063 8.51252C22.3852 8.23045 22.5415 7.84979 22.5415 7.45314C22.5415 7.05649 22.3851 6.67584 22.1063 6.39377Z" fill="#F41E1E"/>
<path d="M13.2375 8.78247L8.78253 13.2375C9.34862 13.8033 10.1965 14.6516 10.7625 15.2175L15.2175 10.7625C14.8985 10.4346 13.2375 8.78247 13.2375 8.78247Z" fill="#F41E1E"/>
<path d="M21.3787 4.60495L21.8212 4.1587C23.0444 2.91067 21.0889 0.9556 19.8412 2.1787L19.3987 2.62495C19.7216 2.94973 21.3787 4.60495 21.3787 4.60495Z" fill="#F41E1E"/>
<path d="M2.62502 19.3987L2.17877 19.8412C1.29307 20.7003 2.08266 22.2039 3.23255 22.2037C3.78837 22.2445 4.24683 21.7547 4.60501 21.3786C4.28214 21.0536 2.62502 19.3987 2.62502 19.3987Z" fill="#F41E1E"/>
</svg>
