<svg width="48" height="48" viewBox="0 0 48 48" fill="none" xmlns="http://www.w3.org/2000/svg">
<path fill-rule="evenodd" clip-rule="evenodd" d="M6.73581 34.7297L9.86875 26.0954L17.1215 23.5864C17.7909 23.3549 18.2706 23.4955 18.4828 23.9814L18.5679 24.2636C18.6477 24.7236 18.4779 25.277 17.7447 25.5494L13.2761 27.2144C13.1438 27.2642 13.0406 27.37 12.9956 27.5046L11.2683 32.512C11.1397 32.8916 11.5207 33.2467 11.8908 33.0941C13.3438 32.4944 14.5499 33.2109 15.5949 33.9668C16.901 34.9108 17.5845 36.7999 17.5003 39.1902H15.55C15.6422 37.1922 14.9163 36.2936 14.2611 35.8893C12.8726 35.0343 10.5712 35.5929 7.60581 37.5053C7.52688 37.5561 7.46603 37.6284 7.42947 37.7139L5.16081 42.9493H3.24925L6.73581 34.7297ZM2.35938 43.8874H14.1927V46.0312H2.35938V43.8874ZM15.1302 40.1278V46.0312H26.9623V40.1278H15.1302ZM37.1924 6.22828V1.96875H45.6402L43.9761 3.63281C43.7191 3.88988 43.7197 4.30781 43.9761 4.56422L45.6402 6.22828H37.1924ZM39.7331 46.0312H27.8998V34.4268H39.7332V46.0312H39.7331ZM37.7841 11.6494C37.5853 11.0933 37.1774 10.7185 36.9723 10.6145L36.4644 11.1728V1.96875H35.5269V12.2032L30.6513 17.5621C30.5496 17.6751 28.2994 19.1423 27.9663 19.3687C27.8573 19.4427 20.7188 22.2434 19.9463 22.5487C19.4868 22.7304 19.3048 23.2481 19.3806 23.7009L19.4653 23.9766C19.6998 24.492 20.266 24.6274 21.0347 24.3429L26.8323 22.1973C27.144 22.0812 27.4744 22.3196 27.4628 22.6528L27.3477 26.1054C27.3451 26.1818 27.3243 26.2553 27.2868 26.3211L19.9838 39.1903H22.0321L27.372 30.2407C27.3795 30.2288 27.3873 30.2174 27.3945 30.2063C28.391 28.8271 30.9732 28.7063 32.2004 28.8354C32.4385 28.861 32.6193 29.0617 32.6193 29.3016V33.4893H34.723V27.5858C34.723 27.3144 34.4497 26.7749 34.0095 26.4219C33.6059 26.0983 33.0469 25.9481 32.7467 25.9481H32.2828C32.0239 25.9481 31.814 25.7382 31.814 25.4794V19.6324C31.814 19.5151 31.8581 19.4026 31.9367 19.3162L35.5269 15.381V33.4893H36.4644V14.3535L37.4398 13.2845C37.8825 12.7999 37.9975 12.2496 37.7841 11.6494ZM27.1479 16.3389C25.4454 16.3389 24.06 14.953 24.06 13.251C24.06 11.5472 25.4454 10.1617 27.1479 10.1617C28.8504 10.1617 30.2359 11.5471 30.2359 13.251C30.2359 14.953 28.8504 16.3389 27.1479 16.3389ZM13.9124 22.9527C15.6149 22.9527 17.0004 21.5673 17.0004 19.8647C17.0004 18.1622 15.6149 16.7767 13.9124 16.7767C12.2089 16.7767 10.8243 18.1622 10.8243 19.8647C10.8243 21.5673 12.2089 22.9527 13.9124 22.9527Z" fill="white"/>
</svg>
