<svg width="24" height="28" viewBox="0 0 24 28" fill="none" xmlns="http://www.w3.org/2000/svg">
<path d="M21.5942 7.10901C21.4334 6.71662 21.0304 6.55076 20.6942 6.73839L19.2648 7.53595C19.4074 8.24432 19.2493 8.9634 18.8787 9.49704L21.2765 8.15906C21.6128 7.97148 21.755 7.50133 21.5942 7.10901Z" fill="white"/>
<path d="M19.0761 25.3797C20.174 25.0509 20.9854 23.8886 20.9854 22.5053C20.9854 21.2556 20.3229 20.1871 19.3857 19.7497L17.6654 10.337L16.3703 10.8022L17.9529 19.4619L13.6384 18.7929L12.6597 22.2069C12.2871 23.507 11.0837 24.195 9.9819 23.7651C9.62982 23.6277 9.32945 23.392 9.09498 23.093C8.86112 24.4517 7.83278 25.4753 6.59926 25.4753C5.19325 25.4753 4.05349 24.1456 4.05349 22.5053C4.05349 20.8649 5.19325 19.5352 6.59926 19.5352C7.38118 19.5352 8.08051 19.9466 8.54743 20.5939L9.19595 18.1041L8.21659 15.3488L9.11467 15.3335L7.24886 13.684L11.1 15.5408L9.53823 20.9891C9.3323 21.7074 9.66451 22.4845 10.2802 22.7247C10.8964 22.9651 11.5621 22.5768 11.7679 21.8591L13.675 15.2061C13.8699 14.5264 13.5833 13.7863 13.0173 13.5075L10.8248 12.4281C11.3708 11.5123 11.3667 11.5193 11.9681 10.5105L10.1315 7.54984L12.9968 10.2843C13.2475 10.5236 13.5881 10.606 13.9052 10.4919L17.6458 9.14846C18.1628 8.96274 18.453 8.32317 18.2938 7.71997C18.1346 7.11671 17.5865 6.7782 17.0693 6.96397L13.8307 8.12717L11.3721 5.78081L13.5751 6.94992C13.5122 6.53074 13.3157 6.13863 12.9987 5.86814L10.9439 4.11508C10.264 3.53512 9.3054 3.74518 8.8517 4.57172L5.55489 10.5782C5.03125 11.5321 5.38473 12.7996 6.27447 13.2216L6.7254 13.4356L5.31391 13.4336C4.86063 13.4336 4.49313 13.8623 4.49313 14.3912C4.49313 14.9201 4.86063 15.3488 5.31391 15.3488H6.7554L7.58036 17.6696C7.26526 17.5829 6.93709 17.5356 6.59931 17.5356C4.24675 17.5356 2.3396 19.7607 2.3396 22.5053C2.3396 23.9593 2.87496 25.2672 3.72799 26.1759L3.08646 26.9244C2.87561 27.1704 2.87561 27.5693 3.08646 27.8152C3.29735 28.0612 3.63921 28.0612 3.85005 27.8152L4.62635 26.9095C5.21631 27.2699 5.88709 27.4749 6.59922 27.4749C8.76371 27.4749 17.7311 25.5821 17.7311 25.5821L19.6137 27.8119C19.8229 28.0597 20.1648 28.0627 20.3772 27.8186C20.5897 27.5746 20.5922 27.1757 20.383 26.9278L19.0761 25.3797Z" fill="white"/>
<path d="M14.0417 5.04535C15.2359 5.04535 16.204 3.91591 16.204 2.52268C16.204 1.12944 15.2359 0 14.0417 0C12.8475 0 11.8794 1.12944 11.8794 2.52268C11.8794 3.91591 12.8475 5.04535 14.0417 5.04535Z" fill="white"/>
</svg>
