<svg width="28" height="28" viewBox="0 0 28 28" fill="none" xmlns="http://www.w3.org/2000/svg">
<path d="M27.9361 11.9783L24.1821 3.00579C23.8846 2.29491 23.1882 1.83198 22.4163 1.83198H21.5785C20.6057 1.83198 19.8171 2.61898 19.8171 3.5898C19.8171 4.56061 20.6057 5.34762 21.5785 5.34762H21.6678L23.6016 10.6211C21.8853 9.44147 20.1513 9.46471 18.4007 10.6211H14.2623C16.1576 10.4888 17.6853 8.91144 17.6853 6.94258V5.24727C17.6853 3.21333 16.0321 1.55859 14 1.55859H9.90217C9.44952 1.55859 9.08262 1.92587 9.08262 2.37891C9.08262 2.83194 9.44957 3.19922 9.90217 3.19922H10.3147V6.89538C10.3147 8.85199 11.8301 10.4812 13.7328 10.6211H9.59931C7.84865 9.46471 6.11467 9.44147 4.39836 10.6211L6.33217 5.34762H6.42147C7.39431 5.34762 8.1829 4.56061 8.1829 3.5898C8.1829 2.61898 7.39425 1.83198 6.42147 1.83198H5.58377C4.8118 1.83198 4.11546 2.29491 3.81802 3.00579L0.06394 11.9783C-0.0462553 12.2416 -0.0127866 12.5442 0.154831 12.7752C1.69576 14.8985 4.05148 15.905 7.14936 15.8945L9.30285 22.9287V25.8945C9.30285 26.1965 9.54746 26.4414 9.84923 26.4414H18.1508C18.4526 26.4414 18.6972 26.1965 18.6972 25.8945V22.9287L20.8507 15.8945C23.9486 15.905 26.3043 14.8985 27.8452 12.7752C28.0128 12.5442 28.0462 12.2416 27.9361 11.9783ZM15.09 23.6523H12.9046C12.4519 23.6523 12.085 23.285 12.085 22.832C12.085 22.3789 12.452 22.0117 12.9046 22.0117H15.09C15.5427 22.0117 15.9096 22.3789 15.9096 22.832C15.9096 23.285 15.5427 23.6523 15.09 23.6523ZM15.9123 20.371H12.0904C11.6378 20.371 11.2709 20.0038 11.2709 19.5507C11.2709 19.0977 11.6378 18.7304 12.0904 18.7304H15.9123C16.365 18.7304 16.7319 19.0977 16.7319 19.5507C16.7319 20.0038 16.365 20.371 15.9123 20.371Z" fill="white"/>
</svg>
